<?xml version="1.0" encoding="UTF-8"?><svg id="Camada_1" xmlns="http://www.w3.org/2000/svg" viewBox="0 0 20.03 19.48"><defs><style>.cls-1{fill:#ce5c5c;}</style></defs><path class="cls-1" d="M20.03,16.48c-.04.38-.13.75-.16,1.12-.02.22.04.46-.07.68l-.71.57-1.68.25c-.03-.19-.4-.61-.33-.77l1.04-1.21c.12-.13,1.04-1.04,1.11-1.04.15-.02.6.37.79.41h0Z"/><path class="cls-1" d="M8.63,4.42c.08.06.42.1.55.21.66.55,1.33,1.51,1.95,2.16.61.63,1.27,1.19,1.85,1.85.47.54.9,1.13,1.38,1.65l-.02.08-1.29,1.23c-.28-.25-.55-.54-.83-.79-.24-.21-.53-.4-.76-.62-.47-.44-.88-1.03-1.33-1.5-.38-.4-.79-.76-1.18-1.14-.96-.94-1.95-1.84-2.91-2.78-.3-.29-.55-.71-.84-.98-.17-.16-.64-.47-.85-.6-.28-.17-.59-.29-.89-.43.14.28.28.6.44.87.7,1.19,1.7,1.91,2.67,2.85.9.87,1.74,1.78,2.61,2.68s1.75,1.64,2.56,2.52c.2.22.37.46.57.67l-1.16,1.23c-.06.01-.74-.72-.85-.82-.79-.7-1.69-1.35-2.49-2.05-.15-.13-.87-.77-.9-.88-.03-.11-.11-.75-.15-.78-.17-.05-.41.04-.55.03-.13,0-1.44-1.21-1.67-1.4-.89-.74-1.67-1.31-2.44-2.2-.5-.58-.69-.88-.87-1.65C.94,2.64.82,1.35.77.13l.05-.05c1.14.11,2.26.38,3.4.33.51.03,1.65.55,2.04.89.21.19.4.59.6.81.35.38.95.8,1.25,1.21.14.19.44,1.02.51,1.09h0Z"/><path class="cls-1" d="M18.04,9.01c.04.65.06,1.3-.02,1.95l-1.43.62c-.38.35-.72.76-1.12,1.08l.03.1c1,1.04,2.05,2.05,2.89,3.24.02.04,0,.06-.03.1-.1.15-.39.37-.52.52-.19.2-.36.42-.55.62-.06.07-.27.3-.34.27-.63-.58-1.36-1.05-1.99-1.62-.46-.42-.87-.91-1.37-1.29-.38.34-.78.7-1.14,1.08-.19.5-.43.99-.6,1.51h-1.95s0-1.98,0-1.98l1.46-.61,4.02-3.99c.28-.5.48-1.06.67-1.6h1.95Z"/><path class="cls-1" d="M17.27,1.5l-.46-.23-.08-.07c.97-.42,1.91-.91,2.93-1.2l-1.68,3.96-.2-.2v.49s.05.06.04.1c-.31.59-.53,1.41-.86,1.97-.06.09-.15.17-.27.13-.06-.02-.26-.7-.3-.81-.1-.3-.19-.61-.26-.92.31-.49.7-.92.91-1.47l-2.05,2.15c-.07-.12-.19-.41-.28-.49-.07-.06-.53-.27-.53-.33l2.19-2-1.53.84c-.2-.07-1.56-.45-1.61-.54-.02-.04-.03-.17-.01-.2.29-.08.54-.26.81-.38.31-.13.65-.22.97-.35.4-.16.83-.45,1.26-.45h1.03,0Z"/><path class="cls-1" d="M7.39,11.57c.12-.02.61.48.64.6.01.04.01.06-.02.09l-5.93,5.89h-.1l-.59-.52-.02-.05.03-.07,5.98-5.94h0Z"/><path class="cls-1" d="M4.61,13.75c-.84.87-1.72,1.71-2.59,2.54l-.15.02-1.87-.17,1.38-1.36c.35-.06.62.11.81-.29-.09-.03-.17-.06-.26-.1-.03-.01-.06.02-.05-.05l1.04-.88h.11s1.57.29,1.57.29h0Z"/><path class="cls-1" d="M5.29,17.62l-.2-.57c-.09.27-.07.81-.19,1.04-.1.2-.56.5-.7.71l-.15-.37c-.05.16-.03.47-.09.61-.01.02-.31.35-.35.39-.03.03-.05.06-.1.05l-.16-1.97.07-.12,2.46-2.49s.04.07.05.11c.09.31.24,1.04.26,1.35,0,.05.01.11,0,.16l-.91,1.1h0Z"/><path class="cls-1" d="M14.03,4.94c.27-.08.67.38.64.64l-1.83,1.84c-.16-.17-.5-.33-.64-.5-.03-.03-.06-.06-.04-.11l1.87-1.87h0Z"/></svg>