<?xml version="1.0" encoding="UTF-8"?><svg id="Camada_1" xmlns="http://www.w3.org/2000/svg" viewBox="0 0 20 19.11"><defs><style>.cls-1{fill:#030404;}</style></defs><path class="cls-1" d="M15.59,11.73c.11.02.14-.07.2-.14.78-.95,1.29-2.62,2.33-3.28.44-.28.99-.44,1.45-.68.11-.02.06.01.08.07.11.38.34,1.25.36,1.62.03.58-.79,1.72-1.12,2.25-1.49,2.42-3.12,4.76-4.75,7.09-.52.36-1.18.52-1.82.41-1.63-2.04-3.36-4.15-4.73-6.38-.11-.18-.38-.55-.41-.73-.12-.76.44-1.61.57-2.36.77.14,1.56.29,2.25.68.81.47,1.48,1.21,2.19,1.81.05.04.41.35.44.31.15-4.07-3.06-8.26-6.9-9.42-1.61-.49-3.61-.66-5.11-1.27-.36-.15-.92-.34-.41-.73C.79.53,3.15.12,3.94.05c2.1-.19,3.66.16,5.48,1.17,3.86,2.14,5.91,6.18,6.18,10.51h0Z"/></svg>