<?xml version="1.0" encoding="UTF-8"?><svg id="Camada_1" xmlns="http://www.w3.org/2000/svg" viewBox="0 0 18.18 19.81"><defs><style>.cls-1{fill:#82544d;}</style></defs><path class="cls-1" d="M2.59,7.75c.22,2.61.41,5.23.56,7.85.03.5.11,1.03.13,1.52.01.45-.25.76-.7.8-1.45.11-1.61-1.47-1.64-2.56-.02-.06-.23-.09-.3-.13C.12,14.96.04,14.31.01,13.79c-.09-1.58.24-3.15.28-4.72.04-1.45-.2-3.25.07-4.65.16-.78.93-1.34,1.52-.58l.37,1.08c-.04-.37-.1-.73-.16-1.09-.06-.33-.12-.79-.24-1.1-.13-.33-.44-.51-.62-.81-.3-.52-.31-1.07.27-1.36.49-.25,1.58-.33,2.07-.08.06.03.2.16.24.16.03,0,.32-.19.4-.22.61-.25,1.98-.25,2.68-.28,1.66-.05,3.4.06,5.04-.03.24-.01.51-.08.75-.09.6-.03,1.48.04,1.73.68.1-.03.19-.13.31-.17,1.25-.39,2.05,1.12,2.48,2.03.57,1.21.47,2.01.56,3.29.09,1.21.43,2.73.34,3.92-.04.48-.85,1.64-1.18,2.02-.51.58-1.44.64-2.16.76-2.72.46-5.48.63-8.2,1.03-.54.08-1.11.33-1.64.08-.43-.21-1.45-1.5-1.63-1.95-.07-.17-.09-.4-.13-.58-.22-1.09-.38-2.26-.51-3.36,0-.05-.02-.43-.05-.44-.09.13-.03.29-.02.44h0ZM4.31,1.16c-.08.13.3.81.35.99.14.48.2,1.69.45,2.03.09.12.21.12.24.32s-.12.26-.12.4c0,.18.2.35.22.53.01.15-.11.26-.12.4-.13,1.03.43,2.82.61,3.9.07.38-.05.73.37.9.32.13.76-.02,1.11-.06.45-.04,1.72-.04,2.04-.33.19-.18.23-.62.32-.86.43-1.17,2.19-1.49,2.96-.49.29.38.24.92.87.9.23,0,1.08-.14,1.28-.22.22-.09.54-.74.54-.98,0-.41-.35-.46-.38-.71-.03-.26.15-.35.15-.47,0-.08-.08-.13-.11-.19-.11-.25.06-.32.11-.52.17-.6-.11-1.62-.15-2.27-.04-.57.02-.68-.19-1.24-.23-.59-.57-1.24-.88-1.8-.15-.27-.2-.52-.51-.61-.52-.17-.97,0-1.48.02-1.63.09-3.36-.01-5.01.03-.64.02-1.51.03-2.14.13-.09.01-.5.12-.54.19h0ZM2.49,1.04c-.15,0-.75.07-.74.28.01.24.51.65.65.88.31.52.49,2.04.59,2.7.23,1.47.38,2.96.6,4.43.09.61.18,1.41.35,1.99.1.33.99,1.51,1.28,1.67.26.14.74-.07,1.03-.12,1.02-.17,2.15-.22,3.19-.35,1.62-.2,3.24-.39,4.85-.65.49-.08,1.62-.19,1.98-.48.22-.17.66-.84.82-1.11.23-.37.31-.45.3-.92-.03-1.17-.25-2.32-.34-3.48-.05-.67,0-1.39-.14-2.04-.12-.6-.89-2.27-1.42-2.55-.09-.05-.47-.19-.54-.09-.16.23.54,1.28.65,1.56.54,1.27.38,3.23.48,4.61.05.64.3,1.08.08,1.73-.08.22-.44.97-.59,1.12-.44.44-2.04.04-2.52.5-.22.21-.26.49-.54.7-.61.44-1.5.48-2.12.06-.47-.32-.44-.39-1.08-.36-.77.04-1.74.2-2.51.32-.37.05-.59.24-.96.02-.5-.29-.65-1.09-.76-1.6-.48-2.21-.49-4.52-.98-6.73-.11-.47-.44-1.73-.83-2-.16-.11-.58-.11-.78-.1h0ZM1.29,4.23c-.26.09-.26.63-.28.89-.11,1.35.05,2.72,0,4.07-.05,1.5-.36,3.01-.28,4.51,0,.18.04.5.08.66.15.49.63-.02.8.44.05.55.03,1.12.17,1.67.1.41.28.82.78.73-.03-.35-.07-.7-.09-1.04-.16-2.48-.3-4.95-.5-7.43-.08-.99-.12-2.31-.32-3.25-.09-.42-.31-.81-.36-1.24h0ZM11.35,9.16c-.23,0-.62.33-.75.52-.51.72.8,1.79,1.45.92.42-.57.02-1.46-.69-1.43Z"/><path class="cls-1" d="M5.76,14.55s.03-.08.06-.11c.42-.39,1.4-.47,1.98-.57,1.33-.22,2.67-.35,4-.57.96-.16,2.7-.68,3.58-.58.18.02.33.12.49.15.29-.21.57-.53.86-.72.67-.45,1.26.18,1.36.84.1.66.11,2.45,0,3.1-.09.57-1.11,1.66-1.57,2.04-.51.43-1.59.42-2.26.53-2.04.33-4.08.78-6.13,1.02-1.49.17-2.88.34-4.12-.7-.28-.23-.44-.37-.49-.75-.11-.77-.36-2.55-.02-3.21.29-.57,1.23-.78,1.82-.64.09.02.4.19.43.17h0ZM16.37,13.38c-.02.42,0,.84,0,1.25,0,.23,0,.74-.04.92s-.63.98-.81,1.06c-.18.08-.69.14-.91.17-1.79.29-3.59.56-5.38.87-.56.09-1.22.14-1.75.27-.24.06-.34.17-.63.15-.21-.02-1-.37-1.15-.53-.08-.09-.12-.24-.14-.36-.09-.53.05-1.53-.21-1.96-.16-.26-.64-.15-.89-.06-.32.12-.37.27-.4.6-.07.8.16,1.65.19,2.45,1.01,1.13,2.48.92,3.83.76,2.62-.31,5.19-.95,7.81-1.26.23-.09,1.18-1.15,1.34-1.4.16-.24.18-.38.19-.68.04-.7.06-1.87-.04-2.55-.02-.15-.08-.3-.23-.36l-.79.66h0ZM14.93,13.44c-.79.06-1.66.34-2.44.48-1.46.26-2.94.4-4.4.64-.41.07-1.25.16-1.6.3-.43.18-.35.73-.15,1.06.08.12.23.23.25.37s-.1.48-.07.54c.04.08.7.36.81.37.27.03.57-.12.85-.17,2.27-.46,4.62-.64,6.88-1.17.44-.24.62-.9.37-1.33-.07-.11-.18-.17-.18-.35,0-.19.37-.49.2-.67-.09-.09-.39-.06-.52-.05Z"/></svg>