<?xml version="1.0" encoding="UTF-8"?><svg id="Camada_1" xmlns="http://www.w3.org/2000/svg" viewBox="0 0 19.65 19.69"><defs><style>.cls-1{fill:#3a3357;}.cls-2{fill:#fff;}.cls-3{fill:#aea7b8;}</style></defs><path class="cls-3" d="M17.15,6.56c.36.34.68.87,1.06,1.23.2.19.76.51.88.68.05.07.52,1.27.54,1.38.02.08.01.13-.02.21-.09.22-.42.78-.56.99-.53.81-1.23,1.26-1.88,1.95-.42.44-.78.9-1.24,1.31-.23.2-.49.35-.71.57-.32.32-.58.8-.89,1.11-.25.25-.64.41-.9.65-.9.84-1.51,1.82-2.57,2.49-.32.2-.67.37-1,.56l-.12-.02-1.86-1.21c-.42-.75-1.02-1.16-1.62-1.72-.71-.66-1.37-1.37-2.07-2.04-.14-.13-.37-.26-.5-.4-.19-.2-.32-.59-.5-.77-.15-.16-.43-.2-.57-.33-.22-.19-.43-.66-.65-.86-.37-.35-.84-.56-1.19-1.02-.3-.39-.54-1.08-.79-1.52.21-.33.4-.67.61-.99.18-.27.43-.68.64-.91.23-.25.61-.44.87-.67.15-.14.32-.39.47-.53.73-.68,1.48-1.3,2.14-2.05.23-.26.43-.63.65-.86.2-.21.68-.41.84-.6.11-.14.18-.41.32-.56.2-.22.6-.41.83-.62.38-.34.7-.86,1.12-1.19.39-.31.98-.57,1.42-.83l.08.02c.56.46,1.28.82,1.83,1.28.67.56,1.29,1.3,1.91,1.92.16.16.38.3.54.46.23.25.4.6.62.86.38.46,1.19,1.19,1.65,1.59.18.16.44.28.61.44h0ZM8.63,17.68l1.19.76c.05.02.1,0,.15,0,.1-.03.48-.27.58-.35.82-.59,1.48-1.64,2.28-2.31.26-.22.59-.37.83-.62.31-.32.57-.79.89-1.11.21-.2.53-.38.76-.58.58-.51,1.04-1.18,1.6-1.71.5-.47.88-.69,1.28-1.31.05-.07.31-.54.31-.58,0-.05-.25-.7-.3-.75-.12-.14-.45-.32-.61-.46-.46-.4-.77-.93-1.17-1.31-.17-.16-.44-.3-.62-.45-1-.85-1.76-1.88-2.66-2.79-.62-.63-1.32-1.43-1.98-1.98-.38-.32-.89-.58-1.29-.88-.5.23-.91.56-1.28.96-.14.16-.28.39-.43.54-.21.2-.63.4-.81.6-.12.14-.2.43-.33.57-.18.21-.65.4-.86.62-.17.16-.31.45-.46.64-.66.8-1.52,1.5-2.28,2.21-.21.2-.38.44-.6.64-.24.21-.58.39-.79.62-.31.33-.55.84-.82,1.21.2.54.54.99.98,1.36.15.13.39.24.53.37.24.22.42.65.68.84.14.1.38.16.5.26.19.17.41.69.61.91.13.14.37.28.51.42.62.57,1.21,1.26,1.84,1.85.35.33.88.68,1.19,1.02.2.22.38.62.58.81h0Z"/><path class="cls-2" d="M8.63,17.68c-.21-.2-.39-.59-.58-.81-.31-.34-.83-.69-1.19-1.02-.63-.59-1.22-1.27-1.84-1.85-.15-.14-.39-.27-.51-.42-.2-.22-.41-.74-.61-.91-.11-.1-.36-.16-.5-.26-.26-.2-.44-.62-.68-.84-.14-.13-.38-.24-.53-.37-.44-.37-.77-.82-.98-1.36.27-.37.51-.88.82-1.21.21-.23.56-.41.79-.62.22-.2.39-.44.6-.64.76-.71,1.61-1.4,2.28-2.21.16-.19.3-.48.46-.64.22-.21.68-.41.86-.62.12-.14.2-.43.33-.57.18-.2.6-.4.81-.6.15-.14.29-.38.43-.54.37-.4.78-.73,1.28-.96.4.3.91.56,1.29.88.66.55,1.36,1.36,1.98,1.98.9.91,1.65,1.94,2.66,2.79.18.15.45.29.62.45.4.38.72.91,1.17,1.31.16.14.49.32.61.46.05.06.31.7.3.75,0,.04-.27.51-.31.58-.4.62-.78.83-1.28,1.31-.56.53-1.02,1.2-1.6,1.71-.23.2-.55.38-.76.58-.33.31-.59.78-.89,1.11-.24.25-.57.4-.83.62-.8.67-1.46,1.72-2.28,2.31-.11.08-.48.32-.58.35-.05.02-.1.02-.15,0l-1.19-.76h0ZM12.19,14.3c.06-.07.21-.78.28-.95.06-.15.27-.5.37-.63.34-.43,1.36-.82,1.49-1.26.15-.51.14-1.22.24-1.76-.19-.34-.54-.73-.66-1.1s-.09-1.02-.25-1.37c-.05-.11-.43-.46-.54-.6-.34-.41-.57-.84-1.06-1.08-.16-.08-.62-.3-.77-.33-.24-.06-1.13-.09-1.4-.08-.24,0-.54.12-.79.13-.23,0-.56-.11-.78-.05-.14.04-.9.48-1.03.59-.18.14-.41.42-.57.6-.1.12-.65.72-.68.8-.14.34-.07,1.04-.22,1.44-.1.27-.66.81-.71,1.05-.03.16.04.73.08.92.07.43.19.97.53,1.27.28.24.93.53,1.14.8.07.09.27.52.32.64.05.14.23.91.27.94.12.04.84.42.87.38l.14-.81s.49.11.54.16c.15.15.32,1.1.43,1.34.26.04.5-.07.76-.01.16-.13.38-1.16.43-1.19.03-.02.54-.15.56-.13l.23.69c.14-.13.67-.28.77-.39h0Z"/><path class="cls-1" d="M12.19,14.3c-.1.11-.63.25-.77.39l-.23-.69s-.54.12-.56.13c-.05.04-.28,1.07-.43,1.19-.25-.06-.5.05-.76.01-.12-.24-.29-1.19-.43-1.34-.04-.04-.51-.18-.54-.16l-.14.81s-.76-.34-.87-.38c-.04-.03-.22-.81-.27-.94-.05-.13-.25-.55-.32-.64-.21-.26-.85-.55-1.14-.8-.34-.29-.46-.84-.53-1.27-.03-.19-.11-.76-.08-.92.05-.24.61-.78.71-1.05.15-.4.07-1.1.22-1.44.03-.08.58-.69.68-.8.16-.18.39-.46.57-.6.13-.1.89-.55,1.03-.59.22-.07.55.05.78.05.25,0,.55-.12.79-.13.28,0,1.16.02,1.4.08.15.04.61.25.77.33.48.24.72.67,1.06,1.08.11.13.49.48.54.6.16.35.13.99.25,1.37s.46.76.66,1.1c-.11.53-.09,1.25-.24,1.76-.14.44-1.15.84-1.49,1.26-.1.13-.31.48-.37.63-.07.16-.22.88-.28.95h0ZM8.57,9.53l-1.42-.28c-.07.02-.25.67-.32.78l.42.86,1.15.59.81-.74c-.17-.42-.43-.8-.63-1.21h0ZM12.57,9.25l-1.34.24c-.14.05-.58,1.03-.7,1.22.18.13.59.64.76.72.06.02.07.03.13.01.09-.02.92-.44,1.01-.51.08-.06.47-.83.47-.91,0-.07-.28-.76-.32-.76ZM9.82,11.07l-.43.81c.1.18.25,1.17.59.95.12-.08.29-.77.36-.95l-.43-.77s-.06-.05-.08-.04h0Z"/><path class="cls-2" d="M8.57,9.53c.2.41.46.79.63,1.21l-.81.74-1.15-.59-.42-.86c.07-.11.25-.76.32-.78l1.42.28h0Z"/><path class="cls-2" d="M12.57,9.25s.32.7.32.76c0,.08-.39.85-.47.91-.09.07-.92.48-1.01.51-.06.01-.07.01-.13-.01-.17-.07-.58-.58-.76-.72.12-.18.56-1.17.7-1.22l1.34-.24Z"/><path class="cls-2" d="M9.82,11.07s.07,0,.08.04l.43.77c-.08.17-.24.87-.36.95-.33.22-.48-.77-.59-.95l.43-.81h0Z"/></svg>