<?xml version="1.0" encoding="UTF-8"?><svg id="Camada_1" xmlns="http://www.w3.org/2000/svg" viewBox="0 0 19.87 17.47"><defs><style>.cls-1{fill:#5d5d91;}</style></defs><path class="cls-1" d="M14.39,6.68c-.68-.11-1.31.03-1.96.19-.1.23-.61.55-.69.73-.03.08-.04.36-.06.38s-.31.04-.37.15c-.07.13.23.43.28.56.11.27.11.71.24.96.05.09.35.38.45.47.63.58,1.42.93,2.25,1.15l-.07,1.61c.55-.3,1.02-.61,1.48-1.04.39-.37.86-.9,1.15-1.34.06-.09.27-.55.29-.57.04-.03.14.03.19.03.19,0-.03-.41-.05-.51-.08-.43-.02-.98-.07-1.44s-.22-.93-.2-1.4l.71-.87,1.92-2.64c-.05.36-.02.74-.07,1.1-.05.35-.19.72-.24,1.06-.06.4-.02.83-.08,1.22-.12.76-.34,1.44-.42,2.26-.1,1.07-.18,2.05-.36,3.12-.21,1.21-.36,2.1-1.24,3.01-.32.33-.74.5-1.12.75-.65.42-1.15.82-1.9,1.09-.74.27-2.53.62-3.31.63-.21,0-.43-.14-.63-.11-.14.02-.33.23-.49.23-.72-.12-1.47-.13-2.18-.24-2.01-.3-4.76-1.29-5.89-3.08-.63-1-.68-2.21-.86-3.36-.05-.31-.17-.66-.2-.97-.03-.3.02-.61,0-.91-.05-.84-.35-1.71-.45-2.54-.04-.36-.03-.75-.08-1.12-.09-.74-.29-1.49-.35-2.24.54.54.87,1.23,1.29,1.85s.89,1.16,1.3,1.76c-.09.88-.19,1.71-.2,2.59,0,.05-.04.1-.04.14,0,.02.06.02.08.06.17.32.28.76.45,1.06.27.45,1.13,1.44,1.54,1.76.29.23.7.39,1,.61.12-.26-.02-1.44.1-1.57.05-.05.84-.29.99-.36.34-.16.8-.44,1.08-.68.09-.08.5-.47.54-.55.05-.09.2-.95.2-1.07,0-.12-.13-.86-.17-.96s-.59-.68-.69-.75c-.09-.06-.89-.29-1-.3-.2-.02-.58.01-.79.02-.05,0-.19.08-.16-.02.06-.17.45-.67.58-.87.36-.58.79-1.43,1.29-1.88.13-.12.62-.17.71-.32.12-.2-.04-.48-.04-.66,0-.11.88-1.48,1.02-1.69.27-.41.56-.82.86-1.21l4.45,6.68h0ZM10.06,15.76s.04-.12.06-.16c.44-.72.84-1.46,1.27-2.18-.39-.75-.78-1.51-1.18-2.25-.06-.11-.13-.25-.22-.33-.09.33-.47.74-.55,1.05-.04.14.02.35-.03.46-.04.08-.31.15-.35.25-.04.09,0,.34-.02.35-.01.01-.12-.03-.19.03-.03.03-.2.39-.19.44l1.31,2.28s.07.08.1.06h0Z"/></svg>