<?xml version="1.0" encoding="UTF-8"?><svg id="Camada_1" xmlns="http://www.w3.org/2000/svg" viewBox="0 0 13.4 19.72"><defs><style>.cls-1{fill:#4c8557;}</style></defs><path class="cls-1" d="M12.67,8.53l-.99.06.55.96c-.29.38-.51.89-.8,1.26-.56.69-1.42,1.41-2.13,1.96-.26.2-.92.74-1.17.86-.35.16-1.09.25-1.5.37-.48.13-1.39.53-1.82.55-.25.02-.58-.1-.8-.08-.07,0-.12.08-.2.06,0-.28-.01-.56,0-.84,0-.16.01-.38.03-.53.04-.45.22-.93.28-1.38.97-.34,1.97-.59,2.98-.79l-1.08-.13-1.17-.42s0-.05.01-.08c.08-.21.66-1.15.81-1.32.29-.34.85-.72,1.2-1.04.54-.49,1.01-1.05,1.66-1.42l1.55-1.5-2.22.67c-.86.58-1.68,1.21-2.45,1.91l-1.26-1.01-.08.81.44.94-.65.47-.6,1.28s-.07-.02-.09-.05c-.21-.22-.42-.54-.64-.74-.26-.24-.65-.44-.93-.68l.33,1.28.63,1.11c-.01.48-.22,1.05-.22,1.52,0,.4.1,1.11.17,1.52.24,1.49.89,2.77,1.23,4.22l.77,1.29s-.22.15-.26.11l-1.11-.84c-.26-.43-.41-.95-.65-1.38-.24-.43-.61-.88-.89-1.3-.2-.3-.63-.87-.75-1.17-.15-.35-.19-.96-.3-1.36-.12-.43-.44-.99-.49-1.41-.11-.85-.08-1.8.12-2.63.46-1.9,1.87-3.21,3.37-4.35.7-.53,1.87-1.31,2.69-1.59.45-.16,1.04-.17,1.5-.32,1.35-.42,2.54-1.38,3.71-2.14L12.28.02c.08-.04.47,0,.57.01.03,0,.05,0,.06.04l.35,1.68c.02.55-.02,1.11,0,1.66.02.51.15,1.13.14,1.63,0,.39-.35,1.27-.44,1.72-.12.58-.16,1.18-.28,1.76h0Z"/></svg>