<?xml version="1.0" encoding="UTF-8"?><svg id="Camada_1" xmlns="http://www.w3.org/2000/svg" viewBox="0 0 19.53 20"><defs><style>.cls-1{fill:#d6cfc6;}.cls-2{fill:#4e321e;}</style></defs><path class="cls-2" d="M.98,19.01c-.59-.59-.92-1.41-.98-2.25V3.23C.11,1.49,1.41.14,3.15,0h13.26c1.64.13,2.95,1.4,3.11,3.04v13.92c-.15,1.48-1.25,2.69-2.71,2.98-4.56.13-9.14.02-13.71.06-.8-.08-1.56-.41-2.13-.98h0ZM9.12,2.02c-1.29.06-3.72,1.04-2.89,2.71.2.41.86,1.06,1.35.85.39-.16,1.03-.84,1.47-1.12.6-.37,1.81-.83,2.41-.25.73.7-.36,1.39-.88,1.75-1.42.98-4.3,2.2-3.67,4.39.27.96,1.29,1.77,2.14,2.23.13.07.65.34.75.33.09,0,.53-.5.53-.56-.49-.72-.94-1.34-.27-2.13.92-1.07,2.89-1.64,3.32-3.06.75-2.5-1.76-5.27-4.26-5.15h0ZM9.12,14.28c-2.02.24-2,3.57.18,3.7,2.61.15,2.61-4.04-.18-3.7h0Z"/><path class="cls-1" d="M9.12,2.02c2.5-.12,5.01,2.65,4.26,5.15-.43,1.42-2.41,1.98-3.32,3.06-.67.78-.22,1.41.27,2.13,0,.06-.44.55-.53.56-.1.01-.63-.26-.75-.33-.84-.46-1.86-1.28-2.14-2.23-.63-2.19,2.25-3.41,3.67-4.39.52-.36,1.61-1.05.88-1.75-.6-.58-1.81-.12-2.41.25-.44.27-1.08.95-1.47,1.12-.48.2-1.15-.45-1.35-.85-.83-1.67,1.6-2.65,2.89-2.71h0Z"/><path class="cls-1" d="M9.12,14.28c2.79-.34,2.79,3.85.18,3.7-2.19-.13-2.2-3.46-.18-3.7h0Z"/></svg>