<?xml version="1.0" encoding="UTF-8"?><svg id="Camada_1" xmlns="http://www.w3.org/2000/svg" viewBox="0 0 18.98 20"><defs><style>.cls-1{fill:#969391;}</style></defs><path class="cls-1" d="M18.98.84s-.35.57-.4.64c-1.79,2.57-4.23,5-6.33,7.34-.85.95-1.65,1.95-2.53,2.87-1.91,2.02-4.13,3.96-6.29,5.7-.41.33-2.01,1.67-2.4,1.73-.05,0-.11.01-.16,0-.02-.13.05-.23.11-.34.47-.95,1.68-2.37,2.36-3.26,2.2-2.86,4.59-5.58,6.44-8.68.06-.04.12-.01.12.06l-.11,1.29c2.01-1.85,4.06-3.66,6.23-5.32.74-.57,1.53-1.16,2.31-1.67.06-.04.61-.4.64-.37h0Z"/><path class="cls-1" d="M18.91,4.97c.08.09-.35,1.19-.42,1.37-1.02,2.48-2.67,4.73-4,7.05-2.32,1.94-4.71,3.82-7.21,5.52-.35.24-1.55,1.07-1.89,1.09-.09,0-.14,0-.14-.11.33-.41.68-.81,1.04-1.2,1.55-1.68,3.3-3.23,4.78-4.97.72-.85,1.23-1.77,1.9-2.64,1.12-1.46,2.48-2.78,3.75-4.1.7-.56,1.33-1.4,2.03-1.94.05-.04.09-.08.16-.08h0Z"/><path class="cls-1" d="M12.7,0s-.14.34-.17.4c-1.07,1.87-2.66,3.96-3.98,5.68-2.14,2.81-4.81,6.06-7.47,8.37-.09.08-1.01.87-1.09.79.07-.33.23-.67.37-.98C2.94,8.44,7.37,3.62,12.57.04L12.7,0h0Z"/></svg>