<?xml version="1.0" encoding="UTF-8"?><svg id="Camada_1" xmlns="http://www.w3.org/2000/svg" viewBox="0 0 19.52 19.59"><defs><style>.cls-1{fill:#cf9937;}.cls-2{fill:#fff;}.cls-3{fill:#e3c690;}</style></defs><path class="cls-3" d="M18.28,11.84c-.2.2-.51.39-.73.59-.49.45-.88,1-1.35,1.46-.33.32-.76.59-1.06.89-.35.35-.63.88-.99,1.2-.23.2-.58.36-.81.56-.81.73-1.43,1.74-2.34,2.36-.24.17-.9.57-1.15.66-.05.02-.09.04-.14.03l-1.89-1.21c-.42-.76-1.05-1.19-1.66-1.75-.57-.53-1.12-1.1-1.68-1.64-.25-.25-.63-.53-.84-.77-.18-.21-.35-.61-.53-.77-.14-.13-.4-.17-.54-.3-.2-.19-.4-.6-.61-.81-.14-.14-.35-.23-.5-.36-.6-.5-.93-.99-1.26-1.69-.06-.12-.23-.43-.22-.54,0-.08.48-.81.57-.94.17-.26.45-.71.65-.93.23-.26.64-.45.89-.68.24-.22.47-.52.72-.75.64-.6,1.31-1.15,1.89-1.81.22-.25.42-.62.63-.84.2-.2.64-.39.81-.57.12-.13.18-.41.32-.56.2-.22.6-.41.82-.61.38-.34.7-.85,1.11-1.18.41-.32.99-.57,1.43-.85.56.46,1.29.82,1.84,1.28.65.55,1.29,1.27,1.89,1.88.19.19.43.34.61.55.35.39.6.84.99,1.24.35.35.83.82,1.2,1.13.2.17.47.31.65.48.21.2.4.52.6.74.39.44.85.8,1.32,1.15l.57,1.47c-.21.36-.38.78-.61,1.13-.14.21-.45.63-.62.8h0ZM13.48,15.16c.31-.3.6-.84.94-1.17.21-.2.53-.38.75-.58.58-.51,1.03-1.17,1.59-1.7.49-.46.89-.69,1.28-1.29.06-.09.32-.56.31-.64-.01-.08-.26-.65-.32-.71-.14-.15-.45-.33-.62-.48-.44-.39-.74-.9-1.13-1.27-.21-.2-.53-.39-.77-.6-.46-.41-1.15-1.05-1.54-1.51-.22-.26-.39-.61-.62-.85-.1-.11-.29-.22-.39-.33-.6-.61-1.27-1.38-1.92-1.92-.36-.3-.84-.54-1.22-.84-.02-.02-.05-.02-.08-.01-.04,0-.56.33-.62.37-.44.34-.7.8-1.08,1.15-.21.19-.56.35-.75.55-.16.17-.21.45-.38.61-.2.2-.6.37-.81.56-.16.15-.32.46-.48.65-.68.8-1.5,1.47-2.26,2.19-.22.21-.4.47-.63.67-.59.52-.79.57-1.25,1.29-.07.11-.31.45-.29.56,0,.04.33.66.38.72.32.43.8.63,1.13.96.2.2.37.57.58.76.14.13.44.21.57.32.22.2.42.7.68.96.71.7,1.44,1.43,2.18,2.11.37.34.87.68,1.2,1.03.23.24.41.64.65.86.31.28.83.49,1.16.76.06.02.11,0,.17-.02.31-.12.96-.62,1.19-.87.14-.15.27-.38.41-.54.29-.33.89-.94,1.22-1.22.22-.19.59-.36.78-.54h0Z"/><path class="cls-2" d="M13.48,15.16c-.19.19-.56.36-.78.54-.33.28-.93.89-1.22,1.22-.14.16-.27.39-.41.54-.23.24-.88.75-1.19.87-.06.02-.11.04-.17.02-.33-.28-.85-.48-1.16-.76-.24-.22-.42-.62-.65-.86-.33-.35-.83-.69-1.2-1.03-.73-.68-1.47-1.4-2.18-2.11-.26-.26-.46-.76-.68-.96-.13-.12-.42-.2-.57-.32-.21-.18-.38-.56-.58-.76-.33-.33-.81-.53-1.13-.96-.04-.06-.37-.68-.38-.72-.01-.11.22-.45.29-.56.45-.72.66-.77,1.25-1.29.23-.2.41-.46.63-.67.76-.72,1.58-1.39,2.26-2.19.16-.19.32-.5.48-.65.21-.2.6-.37.81-.56.17-.17.22-.45.38-.61.19-.2.54-.36.75-.55.37-.34.64-.81,1.08-1.15.06-.05.59-.37.62-.37.03,0,.05,0,.08.01.37.3.85.54,1.22.84.65.54,1.31,1.31,1.92,1.92.11.11.29.22.39.33.23.24.4.6.62.85.39.46,1.08,1.1,1.54,1.51.24.21.56.39.77.6.39.37.69.88,1.13,1.27.17.15.48.32.62.48.06.07.31.63.32.71.01.08-.25.54-.31.64-.39.6-.79.83-1.28,1.29-.56.53-1.01,1.18-1.59,1.7-.23.2-.54.38-.75.58-.34.33-.62.87-.94,1.17h0ZM9.97,3.08s-.39-.01-.41.02c-.06.09-.15.56-.21.71-.08.21-.23.44-.3.66-.08.23-.09.51-.17.72-.09.25-.29.53-.4.79-.26.64-.32,1.33-.68,1.93-.69.33-1.35.73-2.07.98-.24.08-.5.11-.73.2-.44.16-.85.49-1.36.54.03.14-.1.35.02.44.07.05.44.23.53.26.23.08.54.07.74.15.18.07.39.33.58.42.21.1.5.11.72.2.19.08.39.25.58.34.21.09.46.13.67.22.19.09.39.25.58.35.13.06.57.21.64.27.04.04.14.27.11.33-.03.06-.47.3-.56.42-.02.03-.04.05-.05.09-.02.11.24.68.3.83.19.43.42.84.6,1.28.08.18.44,1.28.5,1.32.05.04.27.03.33-.02.05-.04.27-.55.31-.65.17-.44.39-.93.55-1.37.16-.44.26-.95.4-1.41.15-.47.37-.93.5-1.42.12-.16.64-.18.86-.27.2-.08.4-.29.59-.37.22-.09.5-.09.73-.16.35-.11.77-.41,1.15-.57.18-.07.78-.23.87-.29.02-.01.07-.38.04-.42-.03-.04-.6-.18-.7-.22-.93-.34-1.83-.91-2.75-1.26-.24-.09-.55-.1-.77-.19-.05-.02-.59-.36-.62-.39-.03-.03-.08-.28-.08-.29.03-.05.38-.19.43-.25.05-.06.09-.23.07-.31-.32-.65-.53-1.35-.85-1.99-.14-.27-.4-.59-.5-.84-.05-.13-.15-.73-.18-.76h0Z"/><path class="cls-1" d="M9.97,3.08s.13.63.18.76c.1.25.36.56.5.84.32.64.53,1.35.85,1.99.02.08-.02.25-.07.31-.06.07-.4.21-.43.25,0,.01.05.26.08.29.02.03.57.37.62.39.22.09.53.1.77.19.92.34,1.82.91,2.75,1.26.11.04.68.18.7.22.03.04-.02.4-.04.42-.08.06-.69.22-.87.29-.38.15-.8.45-1.15.57-.23.08-.51.07-.73.16-.2.08-.39.28-.59.37-.22.09-.74.11-.86.27-.13.48-.35.94-.5,1.42-.15.46-.24.97-.4,1.41-.16.44-.37.93-.55,1.37-.04.1-.26.61-.31.65-.05.05-.27.05-.33.02-.06-.04-.42-1.14-.5-1.32-.18-.44-.41-.85-.6-1.28-.06-.14-.32-.72-.3-.83,0-.04.03-.06.05-.09.09-.12.53-.36.56-.42.03-.05-.07-.29-.11-.33-.06-.06-.51-.21-.64-.27-.19-.1-.39-.26-.58-.35-.21-.09-.46-.13-.67-.22-.19-.09-.4-.26-.58-.34-.22-.09-.51-.11-.72-.2-.19-.09-.4-.35-.58-.42-.21-.08-.51-.07-.74-.15-.09-.03-.46-.21-.53-.26-.12-.09.02-.3-.02-.44.5-.05.91-.38,1.36-.54.23-.08.49-.12.73-.2.73-.25,1.39-.64,2.07-.98.36-.6.41-1.29.68-1.93.11-.27.31-.55.4-.79.08-.22.09-.49.17-.72.07-.22.22-.44.3-.66.06-.15.15-.62.21-.71.02-.03.4-.03.41-.02h0Z"/></svg>