<?xml version="1.0" encoding="UTF-8"?><svg id="Camada_1" xmlns="http://www.w3.org/2000/svg" viewBox="0 0 19.7 19.69"><defs><style>.cls-1{fill:#3a3357;}.cls-2{fill:#fefefe;}.cls-3{fill:#cf9937;}.cls-4{fill:#fff;}.cls-5{fill:#aea7b8;}</style></defs><path class="cls-5" d="M14.32,3.69c.21.23.37.57.58.81.65.78,1.53,1.37,2.27,2.06.65.6,1.12,1.47,1.97,1.91l.57,1.51c-.22.34-.38.76-.6,1.09-.52.79-1.24,1.26-1.87,1.92-.41.43-.78.91-1.23,1.3-.24.21-.52.38-.76.61-.32.32-.58.8-.88,1.09-.22.22-.6.39-.84.6-.81.69-1.45,1.72-2.3,2.34-.26.19-.98.61-1.27.73-.04.02-.08.05-.13.03l-1.92-1.24c-.44-.79-1.12-1.24-1.76-1.83-.62-.58-1.19-1.23-1.81-1.81-.18-.17-.45-.32-.62-.51-.19-.21-.36-.63-.54-.79-.13-.12-.42-.19-.53-.29-.2-.17-.43-.64-.64-.85-.38-.36-.95-.68-1.28-1.14L0,9.86v-.08c.19-.29.36-.59.55-.89s.5-.8.72-1.04.62-.42.86-.65c.21-.19.4-.45.61-.65.72-.67,1.52-1.31,2.14-2.07.21-.26.36-.57.62-.79.19-.17.54-.32.7-.5.14-.15.2-.42.33-.57.19-.2.64-.42.87-.63.37-.34.69-.85,1.11-1.18s.96-.54,1.39-.83h.07s1.81,1.25,1.81,1.25c.77.83,1.78,1.6,2.54,2.44h0ZM7.04,3.94c-.19.2-.62.39-.85.61s-.41.56-.63.81c-.69.77-1.46,1.41-2.21,2.11-.19.18-.37.43-.58.62-.55.47-.76.55-1.19,1.2-.12.19-.24.39-.35.58.22.52.5.93.93,1.29.17.15.44.28.6.42.21.2.39.6.61.79.15.13.41.18.55.3.19.17.4.65.6.88.17.19.4.31.58.48.2.19.4.47.6.67,1,.98,2.17,1.81,2.97,2.97l1.15.75s.06.03.1.02c.07-.01.58-.32.67-.39.51-.37.88-.88,1.31-1.33.27-.28.59-.65.86-.9.24-.22.63-.39.86-.61.32-.3.6-.82.93-1.15.23-.22.56-.41.81-.63.57-.5,1.01-1.15,1.56-1.67.49-.47.88-.68,1.28-1.29.06-.1.33-.55.32-.62,0-.04-.26-.68-.28-.71-.1-.13-.45-.33-.6-.45-.46-.41-.79-.94-1.2-1.33-.17-.16-.44-.3-.63-.46-.53-.46-1.38-1.24-1.81-1.78-.17-.21-.32-.51-.49-.7-.14-.15-.38-.31-.53-.45-.57-.58-1.19-1.3-1.81-1.81-.13-.11-1.21-.86-1.29-.86s-.66.36-.75.44c-.37.3-.63.74-.95,1.05-.21.2-.59.38-.79.58-.15.16-.21.44-.34.59h0Z"/><path class="cls-4" d="M7.04,3.94c.14-.15.19-.43.34-.59.19-.2.57-.38.79-.58.33-.31.58-.75.95-1.05.09-.08.68-.44.75-.44s1.15.75,1.29.86c.62.51,1.24,1.23,1.81,1.81.15.15.39.31.53.45.17.19.33.49.49.7.43.54,1.27,1.32,1.81,1.78.19.16.46.3.63.46.41.39.73.92,1.2,1.33.15.13.5.33.6.45.02.03.28.67.28.71,0,.08-.26.53-.32.62-.4.61-.78.82-1.28,1.29-.55.52-.99,1.17-1.56,1.67-.25.22-.58.41-.81.63-.33.32-.61.84-.93,1.15-.23.23-.62.39-.86.61-.27.25-.59.62-.86.9-.43.45-.79.96-1.31,1.33-.09.06-.6.38-.67.39-.04,0-.07,0-.1-.02l-1.15-.75c-.8-1.15-1.97-1.99-2.97-2.97-.2-.19-.4-.47-.6-.67-.18-.17-.41-.29-.58-.48-.2-.22-.4-.71-.6-.88-.13-.12-.4-.17-.55-.3-.22-.19-.41-.59-.61-.79-.15-.14-.42-.28-.6-.42-.43-.36-.71-.77-.93-1.29.11-.2.23-.4.35-.58.43-.65.64-.73,1.19-1.2.21-.18.39-.44.58-.62.75-.7,1.52-1.33,2.21-2.11.22-.25.41-.6.63-.81.22-.21.66-.41.85-.61h0ZM9.66,3.08c-.08.04-.35-.06-.38-.03-.03.02-.18.63-.22.74-.08.21-.23.44-.3.65-.08.22-.09.49-.17.71s-.26.45-.35.67c-.3.69-.36,1.45-.74,2.11-.7.31-1.36.71-2.09.96-.25.09-.53.12-.77.21-.21.08-.4.23-.6.31-.17.07-.62.15-.72.22-.03.02-.08.36,0,.42.08.06.49.26.59.29.22.07.51.06.72.16.19.08.38.33.57.41.2.09.48.1.69.19.2.08.4.25.61.34.45.19.74.31,1.18.54.22.11.92.28.8.63-.07.19-.67.28-.58.67.11.52.69,1.47.92,2.03.17.42.32.86.47,1.28h.32s.03-13.51.03-13.51h0ZM10.39,5.01v5.81c0,.06.45.66.45.77,0,.07-.28.81-.33.89-.02.03-.08.04-.1.07l-.02,2.39c.1-.03.25.05.33.04.04,0,.25-.62.28-.71.05-.13.08-.42.18-.48.05-.03.47-.13.5-.11.05.07.17.63.2.63.04,0,.09,0,.12-.02.05-.02.63-.32.66-.34.07-.07.2-.74.27-.9.2-.49.51-.81.93-1.1.33-.23.69-.33.89-.72l.25-1.74c-.18-.33-.51-.68-.63-1.04-.13-.38-.09-1.08-.27-1.42-.06-.12-.42-.44-.54-.58-.2-.24-.53-.73-.75-.9-.27-.2-.75-.3-1.05-.47l-1.38-.08h0Z"/><path class="cls-3" d="M9.66,3.08l-.03,13.51h-.32c-.16-.42-.3-.86-.47-1.28-.23-.56-.81-1.51-.92-2.03-.08-.39.52-.47.58-.67.12-.34-.58-.51-.8-.63-.45-.23-.73-.34-1.18-.54-.21-.09-.41-.26-.61-.34-.21-.09-.49-.1-.69-.19-.19-.08-.38-.33-.57-.41-.21-.09-.5-.09-.72-.16-.1-.03-.52-.23-.59-.29-.08-.06-.03-.4,0-.42.1-.07.55-.15.72-.22.2-.08.39-.24.6-.31.24-.09.52-.13.77-.21.73-.25,1.39-.65,2.09-.96.37-.66.43-1.42.74-2.11.09-.21.27-.44.35-.67s.09-.48.17-.71c.07-.21.22-.44.3-.65.04-.12.19-.72.22-.74.04-.03.3.07.38.03h0Z"/><path class="cls-1" d="M10.39,5.01l1.38.08c.3.17.78.27,1.05.47.23.17.55.66.75.9.12.14.48.46.54.58.17.33.13,1.04.27,1.42.13.35.46.7.63,1.04l-.25,1.74c-.21.39-.56.49-.89.72-.42.3-.74.62-.93,1.1-.07.17-.2.83-.27.9-.03.03-.61.33-.66.34-.04.01-.08.02-.12.02-.03,0-.15-.56-.2-.63-.03-.02-.45.08-.5.11-.1.06-.14.36-.18.48-.03.09-.25.7-.28.71-.07.01-.23-.07-.33-.04l.02-2.39s.08-.04.1-.07c.06-.08.34-.82.33-.89,0-.11-.45-.71-.45-.77v-5.81h0ZM13.05,9.03l-1.33.25c-.15.06-.57,1-.69,1.2l.77.71h.07c.22-.17.94-.38,1.08-.57.04-.05.39-.76.39-.81,0-.08-.25-.77-.3-.78h0Z"/><path class="cls-2" d="M13.05,9.03s.3.7.3.78c0,.04-.35.75-.39.81-.15.18-.87.4-1.08.57h-.07s-.77-.71-.77-.71c.11-.19.54-1.14.69-1.2l1.33-.25h0Z"/></svg>