<?xml version="1.0" encoding="UTF-8"?><svg id="Camada_1" xmlns="http://www.w3.org/2000/svg" viewBox="0 0 8.14 19.5"><defs><style>.cls-1{fill:#a5412a;}.cls-2{fill:#886e5e;}.cls-3{fill:#dc9427;}</style></defs><path class="cls-1" d="M3.4,10.05c-.96-.03-1.4,0-2.12-.73C.5,8.52-.03,7.37,0,6.24c0-.08.46-1.44.51-1.53C1.53,3.09,3.53,2.97,3.63.65c0-.14-.15-.59.09-.65.05-.01.44.23.5.28.7.55,1.6,1.9,1.36,2.83-.11.43-.59,1.14-.77,1.66-.05.15-.27.81-.27.92,0,.09.44.66.54.68.12.04.87.03.98-.02.06-.03.48-.4.5-.46.06-.21.03-1.22.14-1.31.02-.02.36-.08.4-.06.08.02.84,1.18.9,1.31.38.9,0,2.43-.55,3.2-.08.11-1,.89-1.1.93-.18.08-.67.02-.9.03.3-.65.61-1.23.39-1.98-.66.25-1.45.32-2-.17-.4-.36-.24-.78-.34-1.25-.02-.1-.35-.9-.4-.9-.37.88-1.28,1.48-1.21,2.51.02.28.14.58.18.86l1.48.92-.14.06h0Z"/><path class="cls-2" d="M7.34,11.3c.01.1.06.19.05.29-.01.14-.44,1.78-.49,1.87-.1.17-.95.61-1.02.76-.07.96-.32,1.91-.4,2.86-.03.35.03.72,0,1.07-.03.29-.17,1.09-.41,1.22-.21.12-1.61.17-1.83.07-.18-.09-.36-.9-.4-1.12-.11-.64-.24-1.5-.29-2.14-.05-.6,0-1.24-.07-1.85-.06-.2-1.02-.61-1.19-.96-.07-.15-.27-.98-.27-1.14-.01-.25.1-.6.08-.88.25-.35,3.96-.05,4.58-.11.54-.1,1.11.05,1.66.06h0Z"/><path class="cls-3" d="M3.4,10.05l.14-.06-1.48-.92c-.04-.28-.16-.58-.18-.86-.07-1.03.85-1.63,1.21-2.51.05,0,.38.8.4.9.1.47-.07.89.34,1.25.56.49,1.35.42,2,.17.21.75-.09,1.33-.39,1.98-.74.04-1.3.08-2.03.06h0Z"/></svg>