<?xml version="1.0" encoding="UTF-8"?><svg id="Camada_1" xmlns="http://www.w3.org/2000/svg" viewBox="0 0 18.16 20"><defs><style>.cls-1{fill:#8c693c;}</style></defs><path class="cls-1" d="M1.04,3.87c-.15-.15-.31-.39-.46-.55-.15-.17-.5-.43-.54-.65-.04-.25.07-.54.09-.79.04-.5-.1-1.04-.05-1.55.01-.15.06-.26.21-.3.61-.02,1.22.03,1.84.02.45,0,.76-.14,1.15.18.94.78,1.78,1.79,2.75,2.56.39.53.87.93,1.34,1.37.13.13.27.32.41.43.11.09.25.14.36.24s.17.24.26.33c.18.17.5.32.69.5.31.09.47-.19.67-.35.15-.12.33-.23.47-.35.12-.1.23-.26.35-.35.08-.06.18-.1.25-.16.16-.13.25-.47.39-.65.21-.28.72-.73,1.01-.96.33-.27.67-.12.95-.39.21-.2.14-.41.19-.66.05-.32.6-.58.83-.79.34-.31.54-.9,1.04-.95.12-.01.26,0,.39,0,.76-.05,1.52-.06,2.28-.05.06,0,.12.04.16.08.11.14.08.7.07.9,0,.42-.05.86-.07,1.28-.02.26.05.6-.12.83-.07.09-.62.67-.7.73-.14.09-.42.1-.58.17-.2.09-.47.68-.62.88-.12.17-.29.32-.43.46-.7.7-1.45,1.34-2.15,2.05-.45.46-.92.83-1.39,1.25-.65.57-1.15,1.21-1.84,1.77-.25.21-.33.4-.71.44-.21.02-.64.05-.85.04-.56-.02-.8-.55-1.15-.9-.24-.23-.52-.41-.76-.64-.64-.63-1.21-1.38-1.89-1.96-.14-.12-.32-.22-.46-.34-.16-.14-.73-.73-.82-.9-.12-.2-.09-.35-.28-.54-.28-.28-.65-.37-.94-.58-.17-.12-.35-.36-.51-.51-.24-.21-.61-.42-.82-.63h0Z"/><path class="cls-1" d="M15.47,9.17c.8-.07,1.68.04,2.49,0,.32.02.17.35.16.55-.02.29-.04.58-.05.87-.02.46.03,1.11-.05,1.55-.05.26-.44.41-.63.56-.11.08-.19.18-.28.25-.2.15-.59.23-.77.39-.13.11-.18.32-.29.44-.08.09-.23.14-.29.27-.05.09-.01.16-.03.23-.02.07-.42.35-.5.42-.52.44-.86.78-1.32,1.27-.57.61-1.2,1.12-1.81,1.68-.53.49-1.06,1.05-1.54,1.59-.26.29-.45.7-.87.77-.38-.04-1.04.06-1.38-.09-.36-.16-.96-.97-1.24-1.28-.64-.7-1.42-1.34-2.06-2.03-.23-.25-.41-.5-.67-.74-.73-.7-1.45-1.48-2.15-2.22-.08-.09-.13-.2-.23-.28-.17-.15-.3-.13-.49-.21-.32-.14-.95-.59-1.18-.85-.33-.36-.19-1.2-.2-1.69,0-.35-.12-.83-.01-1.17.12-.36.59-.22.87-.22.63,0,1.35-.05,1.97,0,.37.03.5.23.74.47.32.33.6.71.91,1.03.12.12.29.24.41.36.31.3.63.7.94.97.29.25.56.39.84.69.19.21.33.46.51.65.26.29,1.22.88,1.6.97.1.02.17.05.28.04s.88-.45.99-.54c.14-.1.22-.24.33-.35.4-.38.93-.61,1.3-1.03.31-.35.6-.72.94-1.04.22-.21.48-.36.7-.56.29-.25.6-.61.87-.9.4-.41.57-.76,1.22-.82h0Z"/></svg>